<?xml version="1.0" encoding="utf-8"?>
<!-- Generator: Adobe Illustrator 17.0.0, SVG Export Plug-In . SVG Version: 6.00 Build 0)  -->
<!DOCTYPE svg PUBLIC "-//W3C//DTD SVG 1.1//EN" "http://www.w3.org/Graphics/SVG/1.1/DTD/svg11.dtd">
<svg version="1.1" id="Capa_1" xmlns="http://www.w3.org/2000/svg" xmlns:xlink="http://www.w3.org/1999/xlink" x="0px" y="0px"
	 width="200px" height="185px" viewBox="0 0 200 185" enable-background="new 0 0 200 185" xml:space="preserve">
<g id="XMLID_369_">
	<circle id="XMLID_364_" fill="#78AFA9" cx="97.737" cy="91.334" r="89.897"/>
	<g id="XMLID_365_">
		<defs>
			<circle id="XMLID_362_" cx="97.737" cy="91.334" r="89.897"/>
		</defs>
		<clipPath id="XMLID_2_">
			<use xlink:href="#XMLID_362_"  overflow="visible"/>
		</clipPath>
		<g id="XMLID_272_" clip-path="url(#XMLID_2_)">
			<g id="XMLID_305_">
				<path id="XMLID_316_" fill="#EDC4A9" d="M97.737,80.942H76.965v16.122v10.745c0,3.991,6.588,16.646,20.772,16.646V80.942z"/>
				<g id="XMLID_314_">
					<path id="XMLID_315_" fill="#F4D4BD" d="M97.737,27.721c-23.403,0-26.871,16.138-26.871,36.819
						c0,22.883,13.69,38.072,26.871,38.072V27.721z"/>
				</g>
				<path id="XMLID_313_" fill="#F4D4BD" d="M71.182,61.786c-1.647-6.154-3.901-6.154-4.854-4.594
					c-0.953,1.56-0.235,5.292,1.384,11.249c1.296,4.769,2.596,7.004,4.42,5.202C73.956,71.841,71.182,61.786,71.182,61.786z"/>
				<path id="XMLID_312_" fill="#EFEEED" d="M67.932,112.58c-0.07,0.01-0.134,0.021-0.203,0.032l0,0h0
					c-2.326,0.346-36.738,3.675-40.233,17.651c-2.146,8.581-6.501,50.968-6.501,50.968h68.237h3.712h4.793v-55.925L67.932,112.58z"
					/>
				<g id="XMLID_309_">
					<polygon id="XMLID_311_" fill="#1B6B69" points="97.737,140.729 91.401,140.729 90.04,181.23 97.737,181.23 					"/>
					<polygon id="XMLID_310_" fill="#257F7B" points="97.737,125.305 92.162,125.305 87.351,133.773 91.401,140.729 97.737,140.729 
											"/>
				</g>
				<g id="XMLID_306_">
					<path id="XMLID_308_" fill="#CCCCCC" d="M84.253,112.861l-7.288-7.042c-3.702,2.167-9.033,6.761-9.033,6.761l24.612,29.576
						l5.193-16.85l-0.39-0.436L84.253,112.861z"/>
					<path id="XMLID_307_" fill="#FFFFFF" d="M84.643,112.58l-7.678-6.761c-3.702,2.08-9.033,6.761-9.033,6.761l24.612,27.607
						l5.193-14.882v-1.196L84.643,112.58z"/>
				</g>
			</g>
			<g id="XMLID_293_">
				<path id="XMLID_304_" fill="#DDB59F" d="M97.737,80.942h20.772v16.122v10.745c0,3.991-6.588,16.646-20.772,16.646V80.942z"/>
				<g id="XMLID_302_">
					<path id="XMLID_303_" fill="#E0C1AD" d="M97.737,27.721c23.404,0,26.871,16.138,26.871,36.819
						c0,22.883-13.69,38.072-26.871,38.072V27.721z"/>
				</g>
				<path id="XMLID_301_" fill="#E0C1AD" d="M124.293,61.786c1.647-6.154,3.901-6.154,4.854-4.594
					c0.953,1.56,0.235,5.292-1.384,11.249c-1.296,4.769-2.596,7.004-4.42,5.202C121.519,71.841,124.293,61.786,124.293,61.786z"/>
				<path id="XMLID_300_" fill="#E0DBD5" d="M127.543,112.58c0.07,0.01,0.134,0.021,0.203,0.032l0,0h0
					c2.326,0.346,36.738,3.675,40.233,17.651c2.146,8.581,6.501,50.968,6.501,50.968h-68.237h-3.712h-4.793v-55.925L127.543,112.58z
					"/>
				<g id="XMLID_297_">
					<polygon id="XMLID_299_" fill="#165B5B" points="97.737,140.729 104.074,140.729 105.435,181.23 97.737,181.23 					"/>
					<polygon id="XMLID_298_" fill="#1B6B69" points="97.737,125.305 103.313,125.305 108.124,133.773 104.074,140.729 
						97.737,140.729 					"/>
				</g>
				<g id="XMLID_294_">
					<path id="XMLID_296_" fill="#CCCCCC" d="M111.221,112.861l7.288-7.042c3.702,2.167,9.033,6.761,9.033,6.761l-24.612,29.576
						l-5.193-16.85l0.39-0.436L111.221,112.861z"/>
					<path id="XMLID_295_" fill="#FFFFFF" d="M110.831,112.58l7.678-6.761c3.702,2.08,9.033,6.761,9.033,6.761l-24.612,27.607
						l-5.193-14.882v-1.196L110.831,112.58z"/>
				</g>
			</g>
			<path id="XMLID_70_" fill="#5B5449" d="M97.737,37.503c-10.574,0-16.565-2.761-16.565-2.761s-0.316,1.755-5.915,10.601
				c-5.599,8.846-3.911,26.068-3.911,26.068s-5.896-10.297-4.347-28.189c2.057-23.76,18.958-27.908,30.738-27.908L97.737,37.503z"/>
			<path id="XMLID_265_" fill="#443E36" d="M97.737,37.503c10.574,0,16.565-2.761,16.565-2.761s0.316,1.755,5.914,10.601
				c5.599,8.846,3.911,26.068,3.911,26.068s5.896-10.297,4.347-28.189c-2.057-23.76-18.958-27.908-30.738-27.908V37.503z"/>
			<g id="XMLID_51_">
				<path id="XMLID_275_" fill="#2D2823" d="M63.284,113.196c-9.956,1.433-32.963,5.772-35.788,17.067
					c-2.146,8.581-6.501,50.968-6.501,50.968h65.076L63.284,113.196z"/>
				<polygon id="XMLID_266_" fill="#443D36" points="59.892,113.726 57.006,144.097 67.932,147.213 60.661,168.56 75.283,181.23 
					86.071,181.23 63.284,113.196 				"/>
			</g>
			<g id="XMLID_289_">
				<path id="XMLID_291_" fill="#2D2823" d="M132.191,113.196c9.956,1.433,32.963,5.772,35.788,17.067
					c2.146,8.581,6.501,50.968,6.501,50.968h-65.076L132.191,113.196z"/>
				<polygon id="XMLID_290_" fill="#443D36" points="135.583,113.726 138.469,144.097 127.543,147.213 134.813,168.56 
					120.192,181.23 109.404,181.23 132.191,113.196 				"/>
			</g>
		</g>
	</g>
</g>
</svg>
